<svg version="1.1" id="Layer_1" xmlns="http://www.w3.org/2000/svg" xmlns:xlink="http://www.w3.org/1999/xlink" x="0px" y="0px"
	 viewBox="-174 210.7 262.2 193.3" style="enable-background:new -174 210.7 262.2 193.3;" xml:space="preserve">

<defs>
	<style type="text/css">
		.st0{fill:#fff;stroke:#19100B;stroke-width:5;stroke-miterlimit:5;}



		.st0{
			stroke-dasharray:1000;
			stroke-dashoffset:0;
			-webkit-animation: dash 2s linear forwards;
			-o-animation: dash 2s linear forwards;
			-moz-animation: dash 2s linear forwards;
			-animation: dash 2s linear forwards;
		}

		#Layer_1:hover .st0{
			fill:#000;
			transition: 0.8s ease-in-out;
		}

		@-webkit-keyframes dash{
			from{
				stroke-dashoffset:800;
			}
			to{
				stroke-dashoffset:0;
			}
			
		}


	</style>
</defs>
<path id="XMLID_x5F_17_x5F__logo" class="st0" d="M67.2,218.7H58H23H-8.2h-5.9h-31.2h-34.3h-31.2l0,0l-13.6,42.7l0,0l-8.1,25.3
	l-13.6,42.7h31.2h34.2h31.2h5.9l-8.1,25.3h-5.9h-31.1H-123h-31.2l-13.6,42.6h31.2h34.2h31.2h5.9H-34H1h17.8c1.1,0.4,2.3,0.5,3.5,0.5
	s2.3-0.2,3.5-0.5c3.7-1.2,6.9-4.2,9.1-8.3c1.3-2.5,2.3-5.4,2.7-8.6l8.2-25.7l8.1-25.3l13.6-42.7l8.1-25.3l3.2-10.1l0,0
	c0.4-1.1,0.8-2.3,1.1-3.5l0,0c0.6-2.4,0.9-5,0.9-7.7C80.8,228.2,74.7,218.7,67.2,218.7z M-35.8,286.7H-67h-34.3l8.1-25.3H-59h31.2
	h5.9l-8,25.3H-35.8z M22.7,329.3l-8.1,25.3h-35l8.1-25.3l13.6-42.6l8.1-25.3h35l-8.1,25.3L22.7,329.3z"/>
</svg>
